<svg width="50" height="20" viewBox="0 0 128 32" fill="none" xmlns="http://www.w3.org/2000/svg">
    <path d="M122.533 18.044C122.533 18.044 122.508 18.0976 122.421 18.0976H115.518C115.407 18.0976 115.353 18.1511 115.353 18.1511C115.353 18.1511 115.271 18.1799 115.271 18.3159V25.6732C115.271 25.7845 115.217 25.8092 115.217 25.8092C115.217 25.8092 115.188 25.8669 115.106 25.8669H109.618C109.539 25.8669 109.482 25.8092 109.482 25.8092C109.482 25.8092 109.453 25.7845 109.453 25.6485V18.287C109.453 18.2088 109.387 18.1511 109.387 18.1511C109.387 18.1511 109.345 18.0976 109.275 18.0976H102.191C102.054 18.0976 102.03 18.0687 102.03 18.0687C102.03 18.0687 101.976 18.0152 101.976 17.8504V12.4662C101.976 12.4003 102.03 12.3303 102.03 12.3303C102.03 12.3303 102.054 12.3056 102.112 12.3056H109.345C109.403 12.3056 109.403 12.2768 109.403 12.2768C109.403 12.2768 109.453 12.2479 109.453 12.1944V5.7474C109.453 5.66913 109.482 5.61146 109.482 5.61146C109.482 5.61146 109.539 5.58262 109.7 5.58262H115.081C115.188 5.58262 115.217 5.61146 115.217 5.61146C115.217 5.61146 115.271 5.66913 115.271 5.77624V12.2479H122.302C122.479 12.2479 122.533 12.2768 122.533 12.2768C122.533 12.2768 122.615 12.3056 122.615 12.4662V17.9081C122.615 17.9616 122.533 18.044 122.533 18.044ZM101.114 25.6238C101.089 25.7845 101.06 25.838 101.06 25.838C101.06 25.838 101.031 25.8957 100.895 25.8957H89.7664C89.4446 25.8957 89.3579 25.8092 89.3579 25.8092C89.3579 25.8092 89.3043 25.7021 89.329 25.459L92.0895 6.30765C92.1184 6.07696 92.172 5.99457 92.172 5.99457C92.172 5.99457 92.2009 5.99457 92.4567 5.99457H97.5238C97.6599 5.99457 97.7012 6.01929 97.7012 6.01929C97.7012 6.01929 97.7301 6.10579 97.7012 6.2129L95.6257 21.1789C95.5968 21.3396 95.6793 21.356 95.6793 21.356C95.6793 21.356 95.733 21.3849 95.9558 21.3849H101.456C101.576 21.3849 101.617 21.4343 101.617 21.4343C101.617 21.4343 101.646 21.4632 101.646 21.5991L101.114 25.6238ZM86.9317 25.9204H81.9885C81.8812 25.974 81.7945 25.8669 81.7945 25.8669C81.7945 25.8669 81.7698 25.838 81.7409 25.6732L81.0848 22.6207C81.0312 22.4724 80.9775 22.39 80.9775 22.39C80.9775 22.39 80.8414 22.3076 80.6763 22.3076H74.2476C74.1239 22.3076 74.0413 22.39 74.0413 22.39C74.0413 22.39 73.9341 22.4848 73.8763 22.6496L72.4156 25.7598C72.3908 25.838 72.3372 25.8669 72.3372 25.8669C72.3372 25.8669 72.2258 25.8957 72.1721 25.8957H66.6017C66.4656 25.9204 66.4243 25.838 66.4243 25.838C66.4243 25.838 66.3995 25.7845 66.4656 25.6732L76.2819 6.13051C76.3355 6.10579 76.3892 6.01929 76.3892 6.01929C76.3892 6.01929 76.4469 5.99457 76.6078 5.99457H82.6858C82.822 5.99457 82.9004 6.07696 82.9004 6.07696C82.9004 6.07696 82.9292 6.10579 82.9581 6.18406L87.039 25.8092C87.039 25.8669 87.0101 25.8957 87.0101 25.8957C87.0101 25.8957 87.0101 25.9204 86.9317 25.9204ZM63.7629 25.8957H58.8196C58.7371 25.8957 58.6587 25.8957 58.6587 25.8957C58.6587 25.8957 58.6422 25.8669 58.6133 25.838L51.7473 13.6815C51.6936 13.6279 51.6689 13.6279 51.6689 13.6279C51.6689 13.6279 51.6111 13.6279 51.6111 13.7062L49.907 25.6485C49.8781 25.7845 49.8492 25.8092 49.8492 25.8092C49.8492 25.8092 49.7956 25.838 49.713 25.838H44.7987C44.7203 25.838 44.6625 25.7845 44.6625 25.7845C44.6625 25.7845 44.5552 25.6732 44.5965 25.5661L47.2827 6.24174C47.3116 6.13051 47.3693 6.10579 47.3693 6.10579C47.3693 6.10579 47.4477 6.01929 47.5303 6.01929H53.0182C53.1007 6.01929 53.1543 6.07696 53.1543 6.07696C53.1543 6.07696 53.208 6.10579 53.2369 6.18406L59.4221 17.0224C59.5294 17.2366 59.6119 17.2119 59.6119 17.2119C59.6119 17.2119 59.6944 17.2119 59.7481 16.9647L61.3078 6.18406C61.3078 6.10579 61.3573 6.07696 61.3573 6.07696C61.3573 6.07696 61.3862 6.01929 61.4687 6.01929L66.6265 6.07696C66.7379 6.07696 66.7668 6.10579 66.7668 6.10579C66.7668 6.10579 66.7915 6.13051 66.7915 6.18406L64.0063 25.6732C63.9774 25.7845 63.9279 25.8669 63.9279 25.8669C63.9279 25.8669 63.899 25.8957 63.7629 25.8957ZM42.1497 25.838L37.3467 25.8669C37.2353 25.8669 37.1569 25.8092 37.1569 25.8092C37.1569 25.8092 37.128 25.7845 37.0991 25.595L36.3482 22.4848C36.3482 22.4189 36.2987 22.39 36.2987 22.39C36.2987 22.39 36.2698 22.39 36.212 22.39H29.4285C29.2923 22.39 29.2098 22.4848 29.2098 22.4848C29.2098 22.4848 29.1025 22.5672 29.02 22.7567L27.6666 25.6485C27.6129 25.7598 27.584 25.7845 27.584 25.7845C27.584 25.7845 27.5056 25.838 27.4355 25.838H21.8403C21.6753 25.8669 21.6464 25.7845 21.6464 25.7845C21.6464 25.7845 21.6175 25.7021 21.6753 25.595L31.3802 6.13051C31.4214 6.01929 31.504 5.99457 31.504 5.99457C31.504 5.99457 31.5576 5.99457 31.6938 5.99457H37.879C37.9904 5.99457 38.0688 6.07696 38.0688 6.07696C38.0688 6.07696 38.0977 6.10579 38.1266 6.18406L42.2858 25.7021C42.2858 25.7845 42.2363 25.8092 42.2363 25.8092C42.2363 25.8092 42.2074 25.838 42.1497 25.838ZM78.7948 11.6259C78.7948 11.6259 78.7659 11.6259 78.737 11.733L76.0384 17.8257C75.9807 18.0152 76.0095 18.044 76.0095 18.044C76.0095 18.044 76.088 18.0976 76.1457 18.0976L80.144 18.0687C80.1729 18.0687 80.1977 18.0687 80.1977 18.0687C80.1977 18.0687 80.2266 18.044 80.1977 17.9616L78.8484 11.7041C78.8236 11.6259 78.7948 11.6259 78.7948 11.6259ZM33.9467 11.7041C33.9467 11.7041 33.9219 11.7041 33.8931 11.7618L31.1904 17.8792C31.1367 17.9616 31.1615 18.0152 31.1615 18.0152C31.1615 18.0152 31.1904 18.044 31.3265 18.044L35.296 18.0687C35.3249 18.0687 35.3372 18.044 35.3372 18.044C35.3372 18.044 35.3661 18.0152 35.3372 17.9328L33.9714 11.7618C33.9714 11.7041 33.9467 11.7041 33.9467 11.7041ZM20.1073 25.1583C20.0784 25.3725 19.9711 25.5373 19.9711 25.5373C19.9711 25.5373 19.8556 25.6485 19.6823 25.7021C17.0745 26.7525 14.1903 26.3983 14.1903 26.3983C9.51112 25.8957 6.54848 23.0286 5.5912 19.3375C4.18415 13.8051 6.97348 9.87922 7.65431 9.03473C9.29243 7.06975 11.859 5.66913 14.3842 5.33958C17.5944 4.89055 19.9711 5.6403 20.9532 5.96985C20.9532 5.96985 22.0301 6.30765 22.8347 6.85554C23.2432 7.12742 23.301 7.23453 23.301 7.23453C23.301 7.23453 23.3258 7.2922 23.2143 7.71238L22.4551 11.6753C22.4262 11.8401 22.3272 11.9225 22.3272 11.9225C22.3272 11.9225 22.2736 11.9513 21.8898 11.7041C19.4636 9.98633 16.6248 10.1923 16.6248 10.1923C14.4667 10.3282 11.9415 11.4611 11.1905 14.32C10.522 16.8576 11.2194 18.9832 12.7296 20.2479C13.757 21.1501 15.3539 21.5991 17.0332 21.5208C18.8612 21.3849 20.3219 20.6599 20.2146 20.7134C20.2146 20.7134 20.293 20.6846 20.3796 20.6599C20.7592 20.4704 20.8418 20.4951 20.8418 20.4951C20.8418 20.4951 20.9243 20.5775 20.8665 20.8246L20.1073 25.1583Z"
          fill="white"/>
</svg>
